<?xml version="1.0" encoding="utf-8"?>
<!-- Svg Vector Icons : http://www.onlinewebfonts.com/icon -->
<!DOCTYPE svg PUBLIC "-//W3C//DTD SVG 1.1//EN" "http://www.w3.org/Graphics/SVG/1.1/DTD/svg11.dtd">
<svg version="1.1" xmlns="http://www.w3.org/2000/svg" xmlns:xlink="http://www.w3.org/1999/xlink" x="0px" y="0px" viewBox="0 0 1000 1000" enable-background="new 0 0 1000 1000" xml:space="preserve">
<metadata> Svg Vector Icons : http://www.onlinewebfonts.com/icon </metadata>
<g><path d="M423.4,653.1h153.1v-61.3H423.4V653.1z M637.8,377.5h122.5v-61.2H637.8V377.5z M795.7,10H479.8C414.9,10,362,63.7,362,129.7l0.1,309H209.1c-64.9,0-122.5,44.8-122.5,110.9V990h61.3V561.3c0-27.7,29.3-61.9,56.5-61.9h371c15.4,0,32.2,6.1,44.8,16.3c8.5,6.8,17.7,29.9,17.7,45.6V990h61.3V561.3c0-33.8-7.8-76.9-36.4-100c-24.7-20-55.3-22.5-86.1-22.5H423.4V132.5c0-27.7,26.9-61.2,61.3-61.2h306.2c41,0,62.9,18.3,61.3,61.2V990h61.3V129.7C913.4,63.7,860.6,10,795.7,10z M637.8,224.4h122.5v-61.3H637.8V224.4z M239.7,653.1h153.1v-61.3H239.7V653.1z M239.7,775.6h153.1v-61.2H239.7V775.6z M423.4,775.6h153.1v-61.2H423.4V775.6z"/></g>
</svg>